<svg width="758" height="42" viewBox="0 0 758 42" fill="none" xmlns="http://www.w3.org/2000/svg">
<path d="M7.14453 34.6045H2.96777V39H1.65527V29.0469H7.82129V30.127H2.96777V33.5312H7.14453V34.6045ZM13.5293 39C13.4564 38.8542 13.3971 38.5944 13.3516 38.2207C12.7637 38.8314 12.0618 39.1367 11.2461 39.1367C10.5169 39.1367 9.91764 38.9316 9.44824 38.5215C8.9834 38.1068 8.75098 37.5827 8.75098 36.9492C8.75098 36.179 9.04264 35.582 9.62598 35.1582C10.2139 34.7298 11.0387 34.5156 12.1006 34.5156H13.3311V33.9346C13.3311 33.4925 13.1989 33.1416 12.9346 32.8818C12.6702 32.6175 12.2806 32.4854 11.7656 32.4854C11.3145 32.4854 10.9362 32.5993 10.6309 32.8271C10.3255 33.055 10.1729 33.3307 10.1729 33.6543H8.90137C8.90137 33.2852 9.03125 32.9297 9.29102 32.5879C9.55534 32.2415 9.91081 31.9681 10.3574 31.7676C10.8086 31.5671 11.3031 31.4668 11.8408 31.4668C12.693 31.4668 13.3607 31.681 13.8438 32.1094C14.3268 32.5332 14.5775 33.1188 14.5957 33.8662V37.2705C14.5957 37.9495 14.6823 38.4896 14.8555 38.8906V39H13.5293ZM11.4307 38.0361C11.8271 38.0361 12.2031 37.9336 12.5586 37.7285C12.9141 37.5234 13.1715 37.2568 13.3311 36.9287V35.4111H12.3398C10.7904 35.4111 10.0156 35.8646 10.0156 36.7715C10.0156 37.168 10.1478 37.4779 10.4121 37.7012C10.6764 37.9245 11.016 38.0361 11.4307 38.0361ZM19.5449 38.1045C19.9961 38.1045 20.3903 37.9678 20.7275 37.6943C21.0648 37.4209 21.2516 37.0791 21.2881 36.6689H22.4844C22.4616 37.0928 22.3158 37.4961 22.0469 37.8789C21.778 38.2617 21.418 38.5671 20.9668 38.7949C20.5202 39.0228 20.0462 39.1367 19.5449 39.1367C18.5378 39.1367 17.7357 38.8018 17.1387 38.1318C16.5462 37.4574 16.25 36.5368 16.25 35.3701V35.1582C16.25 34.4382 16.3822 33.7979 16.6465 33.2373C16.9108 32.6768 17.2891 32.2415 17.7812 31.9316C18.278 31.6217 18.8636 31.4668 19.5381 31.4668C20.3675 31.4668 21.0557 31.7152 21.6025 32.2119C22.154 32.7087 22.4479 33.3535 22.4844 34.1465H21.2881C21.2516 33.668 21.0693 33.276 20.7412 32.9707C20.4176 32.6608 20.0166 32.5059 19.5381 32.5059C18.8955 32.5059 18.3965 32.7383 18.041 33.2031C17.6901 33.6634 17.5146 34.3311 17.5146 35.2061V35.4453C17.5146 36.2975 17.6901 36.9538 18.041 37.4141C18.3919 37.8743 18.8932 38.1045 19.5449 38.1045ZM26.9756 39.1367C25.973 39.1367 25.1572 38.8086 24.5283 38.1523C23.8994 37.4915 23.585 36.6097 23.585 35.5068V35.2744C23.585 34.5407 23.724 33.8867 24.002 33.3125C24.2845 32.7337 24.6764 32.2826 25.1777 31.959C25.6836 31.6309 26.2305 31.4668 26.8184 31.4668C27.7799 31.4668 28.5273 31.7835 29.0605 32.417C29.5938 33.0505 29.8604 33.9574 29.8604 35.1377V35.6641H24.8496C24.8678 36.3932 25.0798 36.9834 25.4854 37.4346C25.8955 37.8812 26.415 38.1045 27.0439 38.1045C27.4906 38.1045 27.8688 38.0133 28.1787 37.8311C28.4886 37.6488 28.7598 37.4072 28.9922 37.1064L29.7646 37.708C29.1449 38.6605 28.2152 39.1367 26.9756 39.1367ZM26.8184 32.5059C26.3079 32.5059 25.8796 32.6927 25.5332 33.0664C25.1868 33.4355 24.9727 33.9551 24.8906 34.625H28.5957V34.5293C28.5592 33.8867 28.3861 33.39 28.0762 33.0391C27.7663 32.6836 27.347 32.5059 26.8184 32.5059ZM37.5918 35.3838C37.5918 36.514 37.332 37.4232 36.8125 38.1113C36.293 38.7949 35.5957 39.1367 34.7207 39.1367C33.7865 39.1367 33.0641 38.8063 32.5537 38.1455L32.4922 39H31.3301V28.5H32.5947V32.417C33.1051 31.7835 33.8092 31.4668 34.707 31.4668C35.6048 31.4668 36.3089 31.8063 36.8193 32.4854C37.3343 33.1644 37.5918 34.0941 37.5918 35.2744V35.3838ZM36.3271 35.2402C36.3271 34.3789 36.1608 33.7135 35.8281 33.2441C35.4954 32.7747 35.0169 32.54 34.3926 32.54C33.5586 32.54 32.9593 32.9274 32.5947 33.7021V36.9014C32.9821 37.6761 33.5859 38.0635 34.4062 38.0635C35.0124 38.0635 35.484 37.8288 35.8213 37.3594C36.1585 36.89 36.3271 36.1836 36.3271 35.2402ZM38.8564 35.2334C38.8564 34.5088 38.9977 33.8571 39.2803 33.2783C39.5674 32.6995 39.9639 32.2529 40.4697 31.9385C40.9801 31.624 41.5612 31.4668 42.2129 31.4668C43.2201 31.4668 44.0335 31.8154 44.6533 32.5127C45.2777 33.21 45.5898 34.1374 45.5898 35.2949V35.3838C45.5898 36.1038 45.4508 36.751 45.1729 37.3252C44.8994 37.8949 44.5052 38.3392 43.9902 38.6582C43.4798 38.9772 42.8919 39.1367 42.2266 39.1367C41.224 39.1367 40.4105 38.7881 39.7861 38.0908C39.1663 37.3936 38.8564 36.4707 38.8564 35.3223V35.2334ZM40.1279 35.3838C40.1279 36.2041 40.3171 36.8626 40.6953 37.3594C41.0781 37.8561 41.5885 38.1045 42.2266 38.1045C42.8691 38.1045 43.3796 37.8538 43.7578 37.3525C44.1361 36.8467 44.3252 36.1403 44.3252 35.2334C44.3252 34.4222 44.1315 33.766 43.7441 33.2646C43.3613 32.7588 42.8509 32.5059 42.2129 32.5059C41.5885 32.5059 41.085 32.7542 40.7021 33.251C40.3193 33.7477 40.1279 34.4587 40.1279 35.3838ZM46.8408 35.2334C46.8408 34.5088 46.9821 33.8571 47.2646 33.2783C47.5518 32.6995 47.9482 32.2529 48.4541 31.9385C48.9645 31.624 49.5456 31.4668 50.1973 31.4668C51.2044 31.4668 52.0179 31.8154 52.6377 32.5127C53.262 33.21 53.5742 34.1374 53.5742 35.2949V35.3838C53.5742 36.1038 53.4352 36.751 53.1572 37.3252C52.8838 37.8949 52.4896 38.3392 51.9746 38.6582C51.4642 38.9772 50.8763 39.1367 50.2109 39.1367C49.2083 39.1367 48.3949 38.7881 47.7705 38.0908C47.1507 37.3936 46.8408 36.4707 46.8408 35.3223V35.2334ZM48.1123 35.3838C48.1123 36.2041 48.3014 36.8626 48.6797 37.3594C49.0625 37.8561 49.5729 38.1045 50.2109 38.1045C50.8535 38.1045 51.3639 37.8538 51.7422 37.3525C52.1204 36.8467 52.3096 36.1403 52.3096 35.2334C52.3096 34.4222 52.1159 33.766 51.7285 33.2646C51.3457 32.7588 50.8353 32.5059 50.1973 32.5059C49.5729 32.5059 49.0693 32.7542 48.6865 33.251C48.3037 33.7477 48.1123 34.4587 48.1123 35.3838ZM57.2246 35.5752L56.4316 36.4023V39H55.167V28.5H56.4316V34.8506L57.1084 34.0371L59.4121 31.6035H60.9502L58.0723 34.6934L61.2852 39H59.8018L57.2246 35.5752Z" fill="#505D6F"/>
<path d="M716.573 33.1484H717.626C718.127 33.1484 718.499 33.0231 718.74 32.7725C718.982 32.5218 719.103 32.1891 719.103 31.7744C719.103 31.3734 718.982 31.0612 718.74 30.8379C718.503 30.6146 718.175 30.5029 717.756 30.5029C717.378 30.5029 717.061 30.6077 716.806 30.8174C716.55 31.0225 716.423 31.2913 716.423 31.624H714.447C714.447 31.1045 714.586 30.6396 714.864 30.2295C715.147 29.8148 715.539 29.4912 716.04 29.2588C716.546 29.0264 717.102 28.9102 717.708 28.9102C718.761 28.9102 719.586 29.1631 720.183 29.6689C720.78 30.1702 721.078 30.863 721.078 31.7471C721.078 32.2028 720.939 32.6221 720.661 33.0049C720.383 33.3877 720.019 33.6816 719.567 33.8867C720.128 34.0872 720.545 34.388 720.818 34.7891C721.096 35.1901 721.235 35.6641 721.235 36.2109C721.235 37.0951 720.912 37.8037 720.265 38.3369C719.622 38.8701 718.77 39.1367 717.708 39.1367C716.715 39.1367 715.901 38.8747 715.268 38.3506C714.639 37.8265 714.324 37.1338 714.324 36.2725H716.3C716.3 36.6462 716.439 36.9515 716.717 37.1885C716.999 37.4255 717.346 37.5439 717.756 37.5439C718.225 37.5439 718.592 37.4209 718.856 37.1748C719.125 36.9242 719.26 36.5938 719.26 36.1836C719.26 35.1901 718.713 34.6934 717.619 34.6934H716.573V33.1484ZM722.896 34.1055L723.471 29.0469H729.049V30.6943H725.091L724.845 32.834C725.314 32.5833 725.813 32.458 726.342 32.458C727.29 32.458 728.033 32.752 728.57 33.3398C729.108 33.9277 729.377 34.7503 729.377 35.8076C729.377 36.4502 729.24 37.0267 728.967 37.5371C728.698 38.043 728.311 38.4372 727.805 38.7197C727.299 38.9977 726.702 39.1367 726.014 39.1367C725.412 39.1367 724.854 39.016 724.339 38.7744C723.824 38.5283 723.416 38.1842 723.115 37.7422C722.819 37.3001 722.662 36.7965 722.644 36.2314H724.599C724.64 36.6462 724.783 36.9697 725.029 37.2021C725.28 37.43 725.606 37.5439 726.007 37.5439C726.453 37.5439 726.798 37.3844 727.039 37.0654C727.281 36.7419 727.401 36.2861 727.401 35.6982C727.401 35.1331 727.262 34.7002 726.984 34.3994C726.706 34.0986 726.312 33.9482 725.802 33.9482C725.332 33.9482 724.952 34.0713 724.66 34.3174L724.469 34.4951L722.896 34.1055ZM731.236 41.4951L730.204 40.9551L730.45 40.5107C730.756 39.9548 730.913 39.401 730.922 38.8496V37.3184H732.59L732.583 38.6855C732.578 39.1914 732.451 39.7018 732.2 40.2168C731.95 40.7318 731.628 41.1579 731.236 41.4951ZM738.681 35.0215C738.166 35.5273 737.564 35.7803 736.876 35.7803C735.996 35.7803 735.292 35.4795 734.764 34.8779C734.235 34.2718 733.971 33.4561 733.971 32.4307C733.971 31.779 734.112 31.182 734.395 30.6396C734.682 30.0928 735.08 29.6689 735.591 29.3682C736.101 29.0628 736.675 28.9102 737.313 28.9102C737.97 28.9102 738.553 29.0742 739.063 29.4023C739.574 29.7305 739.97 30.2021 740.253 30.8174C740.535 31.4326 740.679 32.1367 740.684 32.9297V33.6611C740.684 35.32 740.271 36.6234 739.446 37.5713C738.621 38.5192 737.452 39.0251 735.939 39.0889L735.454 39.0957V37.4482L735.892 37.4414C737.61 37.3639 738.539 36.5573 738.681 35.0215ZM737.361 34.2695C737.68 34.2695 737.954 34.1875 738.182 34.0234C738.414 33.8594 738.59 33.6611 738.708 33.4287V32.6152C738.708 31.9453 738.58 31.4258 738.325 31.0566C738.07 30.6875 737.728 30.5029 737.3 30.5029C736.903 30.5029 736.577 30.6852 736.322 31.0498C736.067 31.4098 735.939 31.8633 735.939 32.4102C735.939 32.9525 736.062 33.3991 736.309 33.75C736.559 34.0964 736.91 34.2695 737.361 34.2695ZM748.921 39H742.099V37.6465L745.318 34.2148C745.76 33.7318 746.086 33.3102 746.296 32.9502C746.51 32.5902 746.617 32.2484 746.617 31.9248C746.617 31.4827 746.506 31.1364 746.282 30.8857C746.059 30.6305 745.74 30.5029 745.325 30.5029C744.879 30.5029 744.525 30.6579 744.266 30.9678C744.01 31.2731 743.883 31.6764 743.883 32.1777H741.9C741.9 31.5716 742.044 31.0179 742.331 30.5166C742.623 30.0153 743.033 29.6234 743.562 29.3408C744.09 29.0537 744.689 28.9102 745.359 28.9102C746.385 28.9102 747.18 29.1562 747.745 29.6484C748.315 30.1406 748.6 30.8356 748.6 31.7334C748.6 32.2256 748.472 32.7269 748.217 33.2373C747.962 33.7477 747.524 34.3424 746.904 35.0215L744.642 37.4072H748.921V39ZM754.759 35.0215C754.244 35.5273 753.642 35.7803 752.954 35.7803C752.075 35.7803 751.37 35.4795 750.842 34.8779C750.313 34.2718 750.049 33.4561 750.049 32.4307C750.049 31.779 750.19 31.182 750.473 30.6396C750.76 30.0928 751.159 29.6689 751.669 29.3682C752.179 29.0628 752.754 28.9102 753.392 28.9102C754.048 28.9102 754.631 29.0742 755.142 29.4023C755.652 29.7305 756.049 30.2021 756.331 30.8174C756.614 31.4326 756.757 32.1367 756.762 32.9297V33.6611C756.762 35.32 756.349 36.6234 755.524 37.5713C754.7 38.5192 753.531 39.0251 752.018 39.0889L751.532 39.0957V37.4482L751.97 37.4414C753.688 37.3639 754.618 36.5573 754.759 35.0215ZM753.439 34.2695C753.758 34.2695 754.032 34.1875 754.26 34.0234C754.492 33.8594 754.668 33.6611 754.786 33.4287V32.6152C754.786 31.9453 754.659 31.4258 754.403 31.0566C754.148 30.6875 753.806 30.5029 753.378 30.5029C752.981 30.5029 752.656 30.6852 752.4 31.0498C752.145 31.4098 752.018 31.8633 752.018 32.4102C752.018 32.9525 752.141 33.3991 752.387 33.75C752.637 34.0964 752.988 34.2695 753.439 34.2695Z" fill="#505D70"/>
<rect width="757" height="15" rx="7.5" fill="#F3F5F8"/>
<rect width="377.646" height="15" rx="7.5" fill="#00B6F0"/>
</svg>
